<?xml version="1.0" encoding="utf-8"?>
<!-- Generator: Adobe Illustrator 27.0.1, SVG Export Plug-In . SVG Version: 6.00 Build 0)  -->
<svg version="1.1" id="Layer_1" xmlns="http://www.w3.org/2000/svg" xmlns:xlink="http://www.w3.org/1999/xlink" x="0px" y="0px"
	 viewBox="0 0 1920 1080" style="enable-background:new 0 0 1920 1080;" xml:space="preserve">
<style type="text/css">
	.st0{clip-path:url(#SVGID_00000140705380886486656590000000191178052165588128_);}
	.st1{clip-path:url(#SVGID_00000066476271215049098910000017240342565291120520_);}
	.st2{fill:url(#SVGID_00000156580380502455135450000003193733991433831836_);}
	.st3{fill:none;stroke:#707070;}
	.st4{clip-path:url(#SVGID_00000047779863000864889260000004706165161486880188_);}
	.st5{fill:none;stroke:#FFFFFF;stroke-width:1.103;stroke-miterlimit:10;stroke-dasharray:5.517,5.517;}
	.st6{fill:none;stroke:#FFFFFF;stroke-width:0.708;stroke-miterlimit:10;}
	.st7{fill:none;stroke:#FFFFFF;stroke-width:0.784;stroke-miterlimit:10;}
	.st8{fill:none;stroke:#FFFFFF;stroke-width:0.992;stroke-miterlimit:10;}
	.st9{fill:none;stroke:#FFFFFF;stroke-width:0.708;stroke-linecap:round;stroke-linejoin:round;}
	.st10{fill:none;stroke:#FFFFFF;stroke-width:0.816;stroke-linecap:round;stroke-linejoin:round;}
	.st11{fill:none;stroke:#FFFFFF;stroke-width:1.5;stroke-linecap:round;stroke-linejoin:round;}
	.st12{fill:none;stroke:#FFFFFF;}
</style>
<g>
	<defs>
		<rect id="SVGID_1_" width="1920" height="1080"/>
	</defs>
	<clipPath id="SVGID_00000148646552382686402590000012324283662151514796_">
		<use xlink:href="#SVGID_1_"  style="overflow:visible;"/>
	</clipPath>
	<g id="Mask_Group_18" style="clip-path:url(#SVGID_00000148646552382686402590000012324283662151514796_);">
		<g id="Group_10697">
			<g>
				<defs>
					<rect id="SVGID_00000181084391352515341580000007383370100587943092_" width="1920" height="1080"/>
				</defs>
				<clipPath id="SVGID_00000127028599249167523950000010378488162138029957_">
					<use xlink:href="#SVGID_00000181084391352515341580000007383370100587943092_"  style="overflow:visible;"/>
				</clipPath>
				<g id="Group_10696" style="clip-path:url(#SVGID_00000127028599249167523950000010378488162138029957_);">
					<g id="Rectangle_3486">
						
							<linearGradient id="SVGID_00000040553007236684864860000011196456257303725731_" gradientUnits="userSpaceOnUse" x1="209.9662" y1="1290.864" x2="211.4682" y2="1288.891" gradientTransform="matrix(1920 0 0 -1080 -402990 1394071)">
							<stop  offset="0" style="stop-color:#5C18B3"/>
							<stop  offset="1" style="stop-color:#18093B"/>
						</linearGradient>
						<rect style="fill:url(#SVGID_00000040553007236684864860000011196456257303725731_);" width="1920" height="1080"/>
						<rect x="0.5" y="0.5" class="st3" width="1919" height="1079"/>
					</g>
				</g>
			</g>
		</g>
		<g id="Group_10787" transform="translate(-46.113 -113.023)">
			<g>
				<defs>
					<rect id="SVGID_00000057860009098170690810000015771115707571206047_" x="0" y="0" width="2012.2" height="1378"/>
				</defs>
				<clipPath id="SVGID_00000018197860955322065220000010821473065315453593_">
					<use xlink:href="#SVGID_00000057860009098170690810000015771115707571206047_"  style="overflow:visible;"/>
				</clipPath>
				<g id="Group_10786" style="clip-path:url(#SVGID_00000018197860955322065220000010821473065315453593_);">
					<path id="Path_35194" class="st5" d="M1061.4,282.8c-91.6-38.5-136.8-138.1-142.1-211.1"/>
					<path id="Path_35195" class="st5" d="M1557.8,38.3c-2.4,56.8-21.2,113.1-55.2,158.7c-34,45.6-83.4,79.9-138.6,93.6
						c-53.4,13.3-117.6,3.4-149.8-41.2c-9.5-13.2-15.8-29.9-12.3-45.7c5-22.3,30.2-37,52.7-32.7c22.4,4.3,39.9,25.2,42.8,47.8
						s-7.4,46-24.4,61.2c-16.3,14.7-86.2,32.6-169.6,15.4"/>
					<path id="Path_35196" class="st5" d="M1676.5,64.9c25,33.9,41.4,73.2,48.1,114.7c3.8,23.9,4.1,49.3-5.8,71.4s-32,40-56.2,39.2
						c-14.5-0.5-29.9-9.7-31.9-24c-1.9-13.5,9-26.2,21.8-30.7c12.8-4.5,26.9-2.7,40.2,0c93.6,19,177.9,80.3,224.8,163.5
						c14.8,26.2,26.1,58.2,14.4,86c-6,14.4-17.7,25.8-30.5,34.6c-59,40.8-200.8-40.2-239,20.2c-26.7,42.2,16.1,95.7,49.1,117.8
						c89.4,59.6,196.6,87.6,300.3,115.9"/>
					<path id="Path_35197" class="st5" d="M1617.8,1350.3c-127.3-40.9-262-115.6-325.8-233.1c-34.7-64-15-130.1,34.1-135
						s99.4,67.3,86.6,133.2c-10.3,53.2-43.1,76-79.8,84.3c-36.7,8.3-75.7,0.4-109.6-15.9c-84.9-41-180.9-156.2-244.5-208.4
						c-57-46.8-152.1-33.7-179.5,33c-27.4,66.7,50.8,220.9,104.2,294.4"/>
					<path id="Path_35198" class="st5" d="M1594.2,1267.7c101.5-46.1,145.6-143.8,121.9-188.8c-14.5-27.6-43.1-28.6-59.6-14.9
						c-10.5,8.7-27.1,27.5-10.6,54.5c11,18,35.7,23.1,56.8,23.7c21.1,0.5,41.8-5.1,61.9-11.6c55.1-17.9,107.6-43.1,156.1-74.8"/>
					<path id="Path_35199" class="st5" d="M563.6,1123.3c12.4-1.1,25.1-1.9,38.2-2.4c188.2-7.1,107,213.3,104.9,257.1"/>
					<path id="Path_35200" class="st5" d="M50.1,789c2.9,55.9,89.6,250.9,192.2,300.6c106.9,51.9,180.4,48.4,257.9,40.2"/>
					<path id="Path_35201" class="st5" d="M1,160.1C86.9,91,376.2,56.4,620.5,155.2c138.2,56,174.2,162.3,99.1,204.6
						c-56.1,31.5-169,5.3-118.9-100.1c61-128.3,246-231.8,353.2-258.1"/>
					<path id="Path_35202" class="st6" d="M1574.2,223c0,0-45.4,44.3-49.9,49.3c-5.8,6.3,1.4,14.6,8.3,9
						c6.5-5.2,45.2-44.4,50.4-50.2C1588.3,225.4,1580.2,217.3,1574.2,223z"/>
					<path id="Path_35203" class="st6" d="M1544.3,251.7c0,0-23.4-13.3-27.2-15.8c-3.8-2.5-1-5,2-4.5c12.6,2.2,36.4,9.6,36.4,9.6"/>
					<path id="Path_35204" class="st6" d="M1554.4,260.6c0,0,13.3,23.4,15.8,27.1s5,1,4.5-2c-2.2-12.6-9.6-36.4-9.6-36.4"/>
					<path id="Path_35205" class="st6" d="M1528.7,267.8c0,0-8.3-1.9-10.2-2.4c-2.7-0.7-5.1,2-2.1,4.1c3.7,2.7,6.5,4.5,6.5,4.5"/>
					<path id="Path_35206" class="st6" d="M1538,276.6c0,0,1.9,8.3,2.4,10.2c0.7,2.7-2,5.1-4.1,2.1c-2.7-3.7-4.5-6.5-4.5-6.5"/>
					<path id="Path_35207" class="st7" d="M585.7,1170.7c0,0-62.8,54.9-69,61.1c-8.1,7.9,0.8,19.2,10.3,12.4
						c8.9-6.3,62.4-55,69.8-62.2C604,1174.8,594,1163.6,585.7,1170.7z"/>
					<path id="Path_35208" class="st7" d="M544.4,1206.2c0,0-29.7-19.1-34.5-22.6c-4.8-3.5-0.9-6.6,2.9-5.7
						c16.3,3.8,47.1,15.3,47.1,15.3"/>
					<path id="Path_35209" class="st7" d="M557.1,1218.6c0,0,15.7,31.6,18.7,36.8c3,5.1,6.5,1.6,6-2.3c-2-16.7-10-48.5-10-48.5"/>
					<path id="Path_35210" class="st7" d="M522.8,1226.2c0,0-10.8-3.1-13.2-3.9c-3.5-1.1-6.8,2.3-3,5.3c4.7,3.8,8.2,6.4,8.2,6.4"/>
					<path id="Path_35211" class="st7" d="M534.3,1238.4c0,0,1.9,11,2.4,13.6c0.7,3.6-3,6.5-5.6,2.4c-3.2-5.1-5.5-8.8-5.5-8.8"/>
					<path id="Path_35212" class="st8" d="M281.5,170.5c0,0-73.2-50.4-81.2-55.3c-10.3-6.3-19.6,5.8-10.2,13.9
						c8.8,7.5,73.2,50.1,82.6,55.7S291,177.1,281.5,170.5z"/>
					<path id="Path_35213" class="st8" d="M233.9,137c0,0,11.9-35.7,14.3-41.6c2.4-5.8,6.6-2.7,6.7,1.5c0.3,17.9-3.4,52.7-3.4,52.7"
						/>
					<path id="Path_35214" class="st8" d="M224.5,153.4c0,0-28.5,24.6-33.1,29c-4.5,4.4,0,7.1,4,5.6c16.7-6.5,47.5-23.1,47.5-23.1"
						/>
					<path id="Path_35215" class="st8" d="M207.6,120.1c0,0,0.4-12,0.5-14.7c0.2-3.9-4.1-6.4-6.3-1.7c-2.7,5.9-4.5,10.1-4.5,10.1"/>
					<path id="Path_35216" class="st8" d="M198.1,135.1c0,0-10.9,4.9-13.4,6.1c-3.5,1.6-7.5-1.4-4-5.1c4.4-4.7,7.7-8,7.7-8"/>
					<path id="Path_35217" class="st6" d="M965,1039.3c0,0-58.3-25.2-64.5-27.4c-8.1-3-12.9,6.8-5.2,11.1c7.2,4,58.2,24.9,65.6,27.6
						S972.6,1042.6,965,1039.3z"/>
					<path id="Path_35218" class="st6" d="M927.1,1022.4c0,0,3.4-26.7,4.3-31.1s4.3-2.8,4.9,0.2c2.7,12.5,4.9,37.4,4.9,37.4"/>
					<path id="Path_35219" class="st6" d="M922.7,1035.2c0,0-16.6,21.2-19.1,24.9c-2.5,3.7,1,5,3.5,3.4c10.8-6.8,30-22.8,30-22.8"/>
					<path id="Path_35220" class="st6" d="M906.3,1014.2c0,0-1.4-8.4-1.7-10.4c-0.4-2.7-3.8-3.9-4.6-0.3c-1.1,4.5-1.7,7.7-1.7,7.7"
						/>
					<path id="Path_35221" class="st6" d="M901.7,1026c0,0-7,4.9-8.5,6.1c-2.2,1.6-5.4,0.1-3.5-3c2.4-3.9,4.3-6.7,4.3-6.7"/>
					<path id="Path_35222" class="st6" d="M1497,1116.6l38.6,38.4C1535.6,1155,1543.8,1123.1,1497,1116.6z"/>
					<path id="Path_35223" class="st6" d="M1498,1251.6c0,0,34.4-52.9,37.7-96.6c9.7,29.9-15.3,86.3-25.7,101L1498,1251.6z"/>
					<path id="Path_35224" class="st6" d="M1535.6,1155c0,0-1.1-26.7,26.4-30.3C1554,1135.4,1545.2,1145.6,1535.6,1155z"/>
					<path id="Path_35225" class="st6" d="M1589.2,1140.4l-53.5,14.6C1535.6,1155,1562.9,1124.2,1589.2,1140.4z"/>
					<path id="Path_35226" class="st6" d="M1535.6,1155c0,0-27.2-23.8-49.5-4.1C1511.9,1153.9,1535.6,1155,1535.6,1155z"/>
					<path id="Path_35227" class="st6" d="M1502.9,1183.3l32.7-28.3C1535.6,1155,1494.2,1162.9,1502.9,1183.3z"/>
					<path id="Path_35228" class="st6" d="M1569.5,1182.5l-33.9-27.5C1535.6,1155,1578,1156.2,1569.5,1182.5z"/>
					<path id="Path_35229" class="st6" d="M1512.6,1250.9c6.4,3.8,12.8,9.8,18.4,18.9l-59-21.7c9.3-3.5,19.4-4.2,29.1-1.9"/>
					<path id="Path_35230" class="st6" d="M902.3,221l-54.1-5.9C848.2,215.1,861.8,245.1,902.3,221z"/>
					<path id="Path_35231" class="st6" d="M817.3,116.1c0,0,6.2,62.8,30.9,98.9c-26.2-17.3-41.9-76.9-43-94.9L817.3,116.1z"/>
					<path id="Path_35232" class="st6" d="M848.2,215.1c0,0,17.5,20.2-1.7,40.1C846.1,241.8,846.6,228.4,848.2,215.1z"/>
					<path id="Path_35233" class="st6" d="M815.5,259.9l32.7-44.9C848.2,215.1,846.1,256.1,815.5,259.9z"/>
					<path id="Path_35234" class="st6" d="M848.2,215.1c0,0,36.1,1.6,41.2-27.7C867.4,201.1,848.2,215.1,848.2,215.1z"/>
					<path id="Path_35235" class="st6" d="M856.1,172.5l-7.9,42.6C848.2,215.1,875.5,183,856.1,172.5z"/>
					<path id="Path_35236" class="st6" d="M804.5,214.8l43.7,0.3C848.2,215.1,814.4,240.6,804.5,214.8z"/>
					<path id="Path_35237" class="st6" d="M806.2,125.8c-7.4,1.1-16.1,0.4-26.2-3.3l59.6-19.9c-5,8.6-12.5,15.4-21.5,19.7"/>
					<path id="Path_35238" class="st6" d="M1755.5,936.7c-25,11.3-8.9,88.8-8.9,88.8l81.4-36.7
						C1828,988.8,1780.6,925.4,1755.5,936.7z"/>
					<path id="Path_35239" class="st6" d="M1828,988.8l56.2-25.4c0,0-62.9-97.7-87.9-86.4c-13.5,6.1-10.5,41.4-4.9,72.7"/>
					<path id="Path_35240" class="st6" d="M1758.1,971.1c5.3,0.2,9.6-4.3,12.3-8.8c2.8-4.7,4.6-9.9,7.7-14.4
						c1.2-1.8,2.6-3.4,4.3-4.8c-9.7-6.4-19.3-9.8-26.8-6.4c-8.1,3.7-11.9,14.4-13.3,27.1c0.1,0,0.1,0,0.2,0
						C1748,965.3,1752.2,970.9,1758.1,971.1z"/>
					<path id="Path_35241" class="st6" d="M1789,917c2.6,1.4,4.7,3.5,7.2,5c2.5,1.5,5.8,2.3,8.3,0.8c2.5-1.5,3.4-4.6,3.6-7.4
						s-0.1-5.8,0.9-8.5c1-2.7,3.8-5,6.6-4.2c1.6,0.5,2.7,1.9,3.9,3c1.3,1.4,3.1,2.2,5,2.2c3.8-0.4,5.1-5.1,5.8-8.8
						c0.2-1.2,0.5-2.4,0.8-3.7c-13.3-13.3-26.2-22.1-34.8-18.2c-8.7,3.9-10.5,19.8-9.3,39C1787.7,916.3,1788.3,916.6,1789,917z"/>
					<line id="Line_1" class="st6" x1="1740.9" y1="1028.1" x2="1892" y2="960"/>
					<path id="Path_35242" class="st6" d="M997.1,1175.1c-25.9-9.2-67.9,58-67.9,58l84.1,29.8
						C1013.4,1262.9,1023,1184.3,997.1,1175.1z"/>
					<path id="Path_35243" class="st6" d="M1013.3,1262.9l58.1,20.6c0,0,22.2-114.1-3.7-123.2c-14-4.9-36.3,22.6-53.9,49"/>
					<path id="Path_35244" class="st6" d="M975.1,1201.7c3.7,3.8,9.9,3.6,15,2.1c5.2-1.5,10.2-3.9,15.5-5.1c2.1-0.4,4.2-0.6,6.4-0.5
						c-2.6-11.3-7.2-20.4-15-23.2c-8.4-3-18.6,2.1-28.4,10.3c0,0,0.1,0.1,0.1,0.1C971.8,1190.6,971.1,1197.5,975.1,1201.7z"/>
					<path id="Path_35245" class="st6" d="M1034.9,1184c0.9,2.8,0.9,5.8,1.7,8.6c0.8,2.8,2.6,5.7,5.5,6.3c2.8,0.6,5.6-1,7.7-2.9
						s4-4.2,6.5-5.5s6.2-1,7.6,1.5c0.8,1.4,0.6,3.2,0.7,4.9c0,1.9,0.7,3.7,2.1,5c3,2.3,7.2-0.2,10.3-2.4c1-0.7,2.1-1.4,3.1-2
						c-0.4-18.8-3.7-34.1-12.5-37.2c-9-3.2-21.4,7-33.7,21.7C1034.4,1182.6,1034.7,1183.3,1034.9,1184z"/>
					<line id="Line_2" class="st6" x1="923.3" y1="1231" x2="1079.5" y2="1286.3"/>
					<path id="Path_35246" class="st9" d="M1801,341c10.8,18.3,4.6,41.9-13.7,52.7c-18.3,10.8-41.9,4.6-52.7-13.7
						c-10.8-18.3-4.6-41.9,13.7-52.7C1766.6,316.5,1790.2,322.7,1801,341C1801,341,1801,341,1801,341z"/>
					<path id="Path_35247" class="st9" d="M1791.9,346.4c7.8,13.3,3.3,30.4-10,38.2c-13.3,7.8-30.4,3.3-38.2-10
						c-7.8-13.3-3.3-30.4,10-38.2C1766.9,328.6,1784.1,333,1791.9,346.4C1791.9,346.3,1791.9,346.4,1791.9,346.4z"/>
					<path id="Path_35248" class="st9" d="M1771.4,358.3c1.2,2,0.5,4.6-1.5,5.8c-2,1.2-4.6,0.5-5.8-1.5s-0.5-4.6,1.5-5.8
						c0,0,0,0,0,0C1767.6,355.6,1770.2,356.3,1771.4,358.3z"/>
					<path id="Path_35249" class="st9" d="M1768.7,356l-12.8-16l7.9,19.3"/>
					<path id="Path_35250" class="st9" d="M1772,361.7l7.6,18.7l-12.7-15.9"/>
					<path id="Path_35251" class="st9" d="M816,337.9c19.6-8.2,42.2,1.2,50.3,20.8c8.2,19.6-1.2,42.2-20.8,50.3
						c-19.6,8.2-42.2-1.1-50.3-20.8C787.1,368.6,796.4,346.1,816,337.9C816,337.9,816,337.9,816,337.9z"/>
					<path id="Path_35252" class="st9" d="M820.1,347.7c14.2-5.9,30.6,0.8,36.5,15.1c5.9,14.2-0.8,30.6-15.1,36.5
						c-14.2,5.9-30.6-0.8-36.5-15.1c0,0,0,0,0,0C799.1,369.9,805.8,353.6,820.1,347.7C820.1,347.7,820.1,347.7,820.1,347.7z"/>
					<path id="Path_35253" class="st9" d="M829.2,369.5c2.2-0.9,4.6,0.1,5.5,2.3s-0.1,4.6-2.3,5.5c-2.2,0.9-4.6-0.1-5.5-2.3
						C826,372.9,827,370.4,829.2,369.5z"/>
					<path id="Path_35254" class="st9" d="M826.5,371.9l-17.6,10.5l20.2-5.2"/>
					<path id="Path_35255" class="st9" d="M832.6,369.4l19.6-5l-17.4,10.4"/>
					<path id="Path_35256" class="st10" d="M236.6,1184.8c19.6-14.6,47.4-10.6,62.1,9c14.6,19.6,10.6,47.4-9,62.1s-47.4,10.6-62.1-9
						c0,0,0,0,0,0C212.9,1227.2,216.9,1199.4,236.6,1184.8C236.6,1184.8,236.6,1184.8,236.6,1184.8z"/>
					<path id="Path_35257" class="st10" d="M243.8,1194.5c14.2-10.6,34.4-7.7,45,6.6c10.6,14.2,7.7,34.4-6.6,45
						c-14.2,10.6-34.4,7.7-45-6.6C226.7,1225.3,229.6,1205.2,243.8,1194.5C243.8,1194.5,243.8,1194.5,243.8,1194.5z"/>
					<path id="Path_35258" class="st10" d="M260.2,1216.4c2.2-1.6,5.2-1.2,6.8,1c1.6,2.2,1.2,5.2-1,6.8c-2.2,1.6-5.2,1.2-6.8-1
						c0,0,0,0,0,0C257.6,1221.1,258,1218,260.2,1216.4z"/>
					<path id="Path_35259" class="st10" d="M257.8,1219.8l-16.7,16.7l21.1-11.4"/>
					<path id="Path_35260" class="st10" d="M264,1215.3l20.5-11.1l-16.5,16.5"/>
					<path id="Path_35261" class="st11" d="M1107.5,230.1c0,14-25.4,47.8-25.4,47.8s-25.4-33.8-25.4-47.8c0-14,11.4-25.4,25.4-25.4
						S1107.5,216.1,1107.5,230.1L1107.5,230.1z"/>
					<path id="Path_35262" class="st11" d="M1093.4,229c0,6.3-5.1,11.3-11.3,11.3c-6.3,0-11.3-5.1-11.3-11.3
						c0-6.3,5.1-11.3,11.3-11.3c0,0,0,0,0,0C1088.3,217.7,1093.4,222.8,1093.4,229C1093.4,229,1093.4,229,1093.4,229z"/>
					<path id="Path_35263" class="st12" d="M1089,290.8c0,3.8-3.1,6.9-6.9,6.9s-6.9-3.1-6.9-6.9s3.1-6.9,6.9-6.9l0,0
						C1085.9,283.9,1089,287,1089,290.8"/>
					<path id="Path_35264" class="st11" d="M558.4,1063c0,14-25.4,47.8-25.4,47.8s-25.4-33.8-25.4-47.8c0-14,11.4-25.4,25.4-25.4
						S558.4,1048.9,558.4,1063L558.4,1063z"/>
					<path id="Path_35265" class="st11" d="M544.2,1061.8c0,6.3-5.1,11.3-11.3,11.3c-6.3,0-11.3-5.1-11.3-11.3
						c0-6.3,5.1-11.3,11.3-11.3c0,0,0,0,0,0C539.2,1050.5,544.2,1055.6,544.2,1061.8C544.2,1061.8,544.2,1061.8,544.2,1061.8z"/>
					<path id="Path_35266" class="st12" d="M539.8,1123.6c0,3.8-3.1,6.9-6.9,6.9c-3.8,0-6.9-3.1-6.9-6.9s3.1-6.9,6.9-6.9h0
						C536.7,1116.7,539.8,1119.8,539.8,1123.6"/>
					<path id="Path_35267" class="st5" d="M1340.9,276.1c0,0,75.6-8.8,140.1-84.6"/>
					<path id="Path_35268" class="st5" d="M1199.6,257.1c-25.1-25.1-25.7-78.1,19-99.3"/>
					<path id="Path_35269" class="st5" d="M1725.3,105.3c0,0,21.4,55.6,17.3,98.4"/>
					<path id="Path_35270" class="st5" d="M1635,559.7c-5.6,34.7,17.3,86.2,59.7,113.7"/>
					<path id="Path_35271" class="st5" d="M769.5,1071.5c-5.2-31.2-2-97.5,42.3-131.3"/>
					<path id="Path_35272" class="st5" d="M843.6,924c0,0,46.2-14.3,79.3-7.8"/>
					<path id="Path_35273" class="st5" d="M1304.3,1057.3c-2.9-25.4,13.1-55.9,50.1-34.9"/>
					<path id="Path_35274" class="st5" d="M592.7,227c-21.5,29.7-43,83.1-21.5,115.7"/>
					<path id="Path_35275" class="st5" d="M215.2,1033.9c0,0,60.1,54.1,135,63"/>
					<path id="Path_35276" class="st6" d="M1365.6,229.6c0,2.2-1.8,4-4,4c-2.2,0-4-1.8-4-4c0-2.2,1.8-4,4-4
						C1363.8,225.6,1365.6,227.4,1365.6,229.6z"/>
					<circle id="Ellipse_1151" class="st6" cx="1393.7" cy="200.8" r="12.7"/>
					<circle id="Ellipse_1152" class="st6" cx="943.7" cy="275.8" r="6.8"/>
					<path id="Path_35277" class="st6" d="M928.1,326.3c0,4.8-3.9,8.7-8.7,8.7c-4.8,0-8.7-3.9-8.7-8.7c0-4.8,3.9-8.7,8.7-8.7
						c0,0,0,0,0,0C924.2,317.6,928.1,321.5,928.1,326.3z"/>
					<path id="Path_35278" class="st6" d="M1690,317.5c0,3.2-2.6,5.8-5.8,5.8c-3.2,0-5.8-2.6-5.8-5.8c0-3.2,2.6-5.8,5.8-5.8
						C1687.4,311.7,1690,314.3,1690,317.5z"/>
					<path id="Path_35279" class="st6" d="M1686.1,190.3c0,7-5.7,12.6-12.6,12.6s-12.6-5.7-12.6-12.6c0-7,5.7-12.6,12.6-12.6
						C1680.4,177.6,1686.1,183.3,1686.1,190.3C1686.1,190.3,1686.1,190.3,1686.1,190.3z"/>
					<path id="Path_35280" class="st6" d="M1736.6,571.2c0,2.7-2.2,4.9-4.9,4.9c-2.7,0-4.9-2.2-4.9-4.9c0-2.7,2.2-4.9,4.9-4.9
						c0,0,0,0,0,0C1734.4,566.3,1736.6,568.5,1736.6,571.2C1736.6,571.2,1736.6,571.2,1736.6,571.2z"/>
					<path id="Path_35281" class="st6" d="M1603.5,614.4c0,6.7-5.4,12.1-12.1,12.1s-12.1-5.4-12.1-12.1s5.4-12.1,12.1-12.1
						c0,0,0,0,0,0C1598,602.3,1603.5,607.7,1603.5,614.4z"/>
					<path id="Path_35282" class="st6" d="M1599.6,667.4c0,3.2-2.6,5.8-5.8,5.8s-5.8-2.6-5.8-5.8c0-3.2,2.6-5.8,5.8-5.8
						C1597,661.5,1599.6,664.2,1599.6,667.4z"/>
					<path id="Path_35283" class="st6" d="M1676.4,1013.8c0,2.4-2,4.4-4.4,4.4c-2.4,0-4.4-2-4.4-4.4s2-4.4,4.4-4.4c0,0,0,0,0,0
						C1674.4,1009.4,1676.4,1011.4,1676.4,1013.8C1676.4,1013.8,1676.4,1013.8,1676.4,1013.8z"/>
					<path id="Path_35284" class="st6" d="M1631.7,1013.8c0,6.7-5.4,12.1-12.1,12.1s-12.1-5.4-12.1-12.1s5.4-12.1,12.1-12.1
						c0,0,0,0,0,0C1626.2,1001.7,1631.7,1007.1,1631.7,1013.8z"/>
					<circle id="Ellipse_1153" class="st6" cx="1738.1" cy="1188.7" r="4.4"/>
					<path id="Path_35285" class="st6" d="M1254.6,1144.5c0,2.7-2.2,4.9-4.9,4.9c-2.7,0-4.9-2.2-4.9-4.9c0-2.7,2.2-4.9,4.9-4.9
						c0,0,0,0,0,0C1252.4,1139.7,1254.6,1141.8,1254.6,1144.5z"/>
					<circle id="Ellipse_1154" class="st6" cx="1201.2" cy="1111.5" r="13.6"/>
					<path id="Path_35286" class="st6" d="M1405.2,957.9c0,3.2-2.6,5.8-5.8,5.8s-5.8-2.6-5.8-5.8c0-3.2,2.6-5.8,5.8-5.8
						C1402.6,952.1,1405.2,954.7,1405.2,957.9z"/>
					<path id="Path_35287" class="st6" d="M1003.9,913.7c0,5.1-4.1,9.2-9.2,9.2s-9.2-4.1-9.2-9.2c0-5.1,4.1-9.2,9.2-9.2
						C999.8,904.5,1003.9,908.6,1003.9,913.7L1003.9,913.7z"/>
					<path id="Path_35288" class="st6" d="M971.8,860.3c0,3-2.4,5.3-5.3,5.3s-5.3-2.4-5.3-5.3c0-3,2.4-5.3,5.3-5.3c0,0,0,0,0,0
						C969.4,854.9,971.8,857.3,971.8,860.3z"/>
					<circle id="Ellipse_1155" class="st6" cx="713.4" cy="1065.8" r="14.6"/>
					<circle id="Ellipse_1156" class="st6" cx="699.3" cy="1008.9" r="6.3"/>
					<path id="Path_35289" class="st6" d="M889.2,1151.8c0,4.6-3.7,8.3-8.3,8.3c-4.6,0-8.3-3.7-8.3-8.3s3.7-8.3,8.3-8.3c0,0,0,0,0,0
						C885.5,1143.5,889.2,1147.2,889.2,1151.8C889.2,1151.8,889.2,1151.8,889.2,1151.8z"/>
					<circle id="Ellipse_1157" class="st6" cx="793" cy="1172.7" r="6.8"/>
					<path id="Path_35290" class="st6" d="M682.3,1237.3c0,8.9-7.2,16-16,16c-8.9,0-16-7.2-16-16c0-8.9,7.2-16,16-16
						C675.1,1221.3,682.3,1228.4,682.3,1237.3C682.3,1237.3,682.3,1237.3,682.3,1237.3z"/>
					<circle id="Ellipse_1158" class="st6" cx="140" cy="1143.5" r="35"/>
					<path id="Path_35291" class="st6" d="M229.4,1119.7c0,4.6-3.7,8.3-8.3,8.3c-4.6,0-8.3-3.7-8.3-8.3c0-4.6,3.7-8.3,8.3-8.3
						c0,0,0,0,0,0C225.7,1111.5,229.4,1115.2,229.4,1119.7C229.4,1119.7,229.4,1119.7,229.4,1119.7z"/>
					<circle id="Ellipse_1159" class="st6" cx="201.7" cy="957.4" r="7.3"/>
					<path id="Path_35292" class="st6" d="M176,886c0,20.4-16.5,36.9-36.9,36.9c-20.4,0-36.9-16.5-36.9-36.9
						c0-20.4,16.5-36.9,36.9-36.9C159.4,849.1,176,865.6,176,886z"/>
					<path id="Path_35293" class="st6" d="M439.3,1073.1c0,4.6-3.7,8.3-8.3,8.3c-4.6,0-8.3-3.7-8.3-8.3s3.7-8.3,8.3-8.3c0,0,0,0,0,0
						C435.6,1064.8,439.3,1068.5,439.3,1073.1C439.3,1073.1,439.3,1073.1,439.3,1073.1z"/>
					<circle id="Ellipse_1160" class="st6" cx="524.8" cy="190.3" r="7.8"/>
					<circle id="Ellipse_1161" class="st6" cx="437.4" cy="128.1" r="35"/>
					<circle id="Ellipse_1162" class="st6" cx="482.6" cy="220.9" r="6.3"/>
					<path id="Path_35294" class="st6" d="M176,399.2c0,10.7-8.7,19.4-19.4,19.4c-10.7,0-19.4-8.7-19.4-19.4
						c0-10.7,8.7-19.4,19.4-19.4C167.3,379.7,176,388.4,176,399.2C176,399.2,176,399.2,176,399.2z"/>
					<path id="Path_35295" class="st6" d="M172.1,327.3c0,2.7-2.2,4.9-4.9,4.9c-2.7,0-4.9-2.2-4.9-4.9s2.2-4.9,4.9-4.9c0,0,0,0,0,0
						C169.9,322.4,172.1,324.6,172.1,327.3C172.1,327.3,172.1,327.3,172.1,327.3z"/>
					<path id="Path_35296" class="st6" d="M211,383.6c0,2.7-2.2,4.9-4.9,4.9s-4.9-2.2-4.9-4.9c0-2.7,2.2-4.9,4.9-4.9c0,0,0,0,0,0
						C208.8,378.8,211,380.9,211,383.6z"/>
					<circle id="Ellipse_1163" class="st6" cx="513.2" cy="322.4" r="9.7"/>
					<circle id="Ellipse_1164" class="st6" cx="1278.9" cy="331.2" r="7.8"/>
				</g>
			</g>
		</g>
	</g>
</g>
</svg>
