<svg id="Group_9494" data-name="Group 9494" xmlns="http://www.w3.org/2000/svg" width="80.776" height="94.862" viewBox="0 0 80.776 94.862">
  <path id="Path_744" data-name="Path 744" d="M48.257,0,8.737,24l39.52,25.511L87.783,24ZM37.923,24.525l10.334-6.28L58.6,24.525,48.257,31.2Z" transform="translate(-7.685)" fill="#38362d"/>
  <path id="Path_745" data-name="Path 745" d="M341.739,237.068v44.17l39.631-25.17V211.887Zm25.815,11.811-9.772,6.252v-11.1l9.772-6.055Z" transform="translate(-300.594 -186.376)" fill="#1b180c"/>
  <path id="Path_746" data-name="Path 746" d="M0,211.887v44.181l39.635,25.17v-44.17Zm25.214,43.255-9.784-6.06V237.988l9.784,6.253Z" transform="translate(0 -186.376)" fill="#2a251a"/>
  <path id="Path_747" data-name="Path 747" d="M495.328,669.965l5.3-3.218-3.52-2.347-5.3,3.4Z" transform="translate(-432.599 -584.408)" fill="#769b2f"/>
  <path id="Path_748" data-name="Path 748" d="M521.008,543.312l5.3-3.218V520.412l-5.3,3.4Z" transform="translate(-458.279 -457.755)" fill="#8fc73e"/>
  <path id="Path_749" data-name="Path 749" d="M475.938,473.971l-.958.59v5.177l5.542,3.229,5.3-3.4Z" transform="translate(-417.793 -416.905)" fill="#8fc73e"/>
  <path id="Path_750" data-name="Path 750" d="M123.17,489.983,111.364,497.9l4.551,2.848,7.255-4.76Z" transform="translate(-97.956 -430.99)" fill="#769b2f"/>
  <path id="Path_751" data-name="Path 751" d="M312.108,144.406l1.334-.848V131.367L308.7,128.7l.177,13.624Z" transform="translate(-271.536 -113.205)" fill="#769b2f"/>
  <path id="Path_752" data-name="Path 752" d="M139.862,131.367l-4.738-2.667-23.76,14.318,4.551,3.206Z" transform="translate(-97.956 -113.205)" fill="#8fc73e"/>
  <path id="Path_753" data-name="Path 753" d="M115.912,287.568l-4.551-2.848v-37.1l4.551,3.206Z" transform="translate(-97.953 -217.81)" fill="#8fc73e"/>
</svg>
