<svg xmlns="http://www.w3.org/2000/svg" width="63.927" height="70" viewBox="0 0 63.927 70">
  <path id="Shopping-Bag" d="M17.982,16.982a15.982,15.982,0,1,1,31.963,0h1.6a12.825,12.825,0,0,1,4.795.959,11.98,11.98,0,0,1,5.434,5.114,10.738,10.738,0,0,1,1.6,4.475c.32,1.6.32,3.516.639,5.753L65.927,51.5v.32A19.234,19.234,0,0,1,46.749,71H21.178A19.234,19.234,0,0,1,2,51.822V51.5L3.918,33.283c.32-2.237.32-4.155.639-5.753a10.739,10.739,0,0,1,1.6-4.475,13.947,13.947,0,0,1,5.434-5.114c1.6-.32,2.877-.639,4.795-.959Zm-3.516,7.032c.32-.32.959-.32,2.237-.639H50.9a4.951,4.951,0,0,1,2.557.639,5.64,5.64,0,0,1,2.877,2.557,3.057,3.057,0,0,1,.639,2.237c.32,1.279.32,2.877.639,5.434l1.918,17.9A12.823,12.823,0,0,1,46.749,64.927H21.178A12.823,12.823,0,0,1,8.393,52.142l1.918-17.9c.32-2.557.32-4.155.639-5.434a3.057,3.057,0,0,1,.639-2.237,5.64,5.64,0,0,1,2.877-2.557Zm9.909-7.032a9.418,9.418,0,0,1,9.589-9.589,9.418,9.418,0,0,1,9.589,9.589Zm0,15.982a3.02,3.02,0,0,0-3.2-3.2,3.02,3.02,0,0,0-3.2,3.2,15.982,15.982,0,1,0,31.963,0,3.2,3.2,0,1,0-6.393,0,9.418,9.418,0,0,1-9.589,9.589A9.418,9.418,0,0,1,24.374,32.963Z" transform="translate(-2 -1)" fill="#fff" fill-rule="evenodd"/>
</svg>
