<svg xmlns="http://www.w3.org/2000/svg" width="61.92" height="62.66" viewBox="0 0 61.92 62.66">
  <g id="fecha-del-calendario" transform="translate(-1.04 -0.67)">
    <g id="Group_10795" data-name="Group 10795">
      <path id="Path_35300" data-name="Path 35300" d="M51.65,58.33h3.69a2.62,2.62,0,0,0,2.62-2.62V28.254A2.6,2.6,0,0,1,60.2,25.623,2.5,2.5,0,0,1,62.96,28.11v27.6a7.621,7.621,0,0,1-7.62,7.62H51.65a2.5,2.5,0,1,1,0-5Z" fill="#fff"/>
      <path id="Path_35301" data-name="Path 35301" d="M8.66,63.33a7.621,7.621,0,0,1-7.62-7.62V10.66A7.621,7.621,0,0,1,8.66,3.04h4.57a2.488,2.488,0,0,1,4.97,0c.01,0,.01.09.01.09V8.04a2.494,2.494,0,0,1-4.98,0H8.66a2.62,2.62,0,0,0-2.62,2.62v5.95H57.96V10.66a2.62,2.62,0,0,0-2.62-2.62H50.77a2.488,2.488,0,0,1-4.97,0H34.49a2.494,2.494,0,0,1-4.98,0H24.9a2.646,2.646,0,0,1-2.652-2.124A2.55,2.55,0,0,1,24.861,3.04h4.65a2.493,2.493,0,0,1,4.98,0H45.8a2.488,2.488,0,0,1,4.97,0h4.57a7.621,7.621,0,0,1,7.62,7.62v7.51a3.44,3.44,0,0,1-3.44,3.44H6.04v34.1a2.62,2.62,0,0,0,2.62,2.62h3.69a2.5,2.5,0,1,1,0,5Z" fill="#fff"/>
    </g>
    <g id="Group_10796" data-name="Group 10796">
      <path id="Path_35302" data-name="Path 35302" d="M32,29.575A16.875,16.875,0,1,0,48.876,46.45,16.895,16.895,0,0,0,32,29.575ZM32,58.8a12.35,12.35,0,1,1,12.35-12.351A12.364,12.364,0,0,1,32,58.8Z" fill="#fff"/>
      <path id="Path_35303" data-name="Path 35303" d="M37.647,40.074a2.6,2.6,0,0,0-1.844.744l-5.76,5.76-1.886-1.886a2.656,2.656,0,0,0-3.659,0,2.607,2.607,0,0,0,0,3.659l3.732,3.73a2.565,2.565,0,0,0,1.829.758,2.613,2.613,0,0,0,1.872-.765l7.562-7.563a2.639,2.639,0,0,0,0-3.692,2.6,2.6,0,0,0-1.846-.745Z" fill="#fff"/>
    </g>
  </g>
</svg>
