<svg xmlns="http://www.w3.org/2000/svg" width="327" height="102.488" viewBox="0 0 327 102.488">
  <g id="Group_10785" data-name="Group 10785" transform="translate(-247 -89.205)">
    <g id="Group_10784" data-name="Group 10784" transform="translate(247 89.205)">
      <text id="OURT_URS" data-name="OURT    URS" transform="translate(0 56)" fill="#220f2f" font-size="56" font-family="HandelGotD-Bold, HandelGotDBol" font-weight="700"><tspan x="0" y="0" xml:space="preserve">OURT    URS</tspan></text>
      <g id="Group_10780" data-name="Group 10780" transform="translate(155.935 9.699)">
        <path id="Path_11439" data-name="Path 11439" d="M30.662,48.852a22.479,22.479,0,1,1,16-38.265,25.822,25.822,0,1,0-4.007,34.8,22.366,22.366,0,0,1-11.991,3.469" transform="translate(0 0)" fill="#220f2f"/>
        <path id="Path_11440" data-name="Path 11440" d="M132.18,71.247a18.233,18.233,0,1,1-27.311,17.818c-.019.357-.029.716-.029,1.078a20.2,20.2,0,1,0,27.341-18.895" transform="translate(-93.789 -63.737)" fill="#220f2f"/>
        <path id="Path_11441" data-name="Path 11441" d="M150.11,84.484a14.966,14.966,0,0,0-14.339,10.688,13.156,13.156,0,1,1,8.574,18.084,14.963,14.963,0,1,0,5.765-28.772" transform="translate(-121.46 -75.579)" fill="#220f2f"/>
      </g>
    </g>
    <text id="_Travels" data-name="&amp;Travels" transform="translate(247 178.693)" fill="#220f2f" font-size="43" font-family="OpenSans, Open Sans"><tspan x="0" y="0">&amp;Travels</tspan></text>
  </g>
</svg>
